Coordinates
version=1
nRows=30
nColumns=21
inDegrees=yes

Units are S.I. units (second, meters, Newtons, ...)
If the header above contains a line with 'inDegrees', this indicates whether rotational values are in degrees (yes) or radians (no).

endheader
time	bJoint_3	seatpos	slocangle	soarinout	sblpos	plocangle	poarinout	pblpos	hipangle	kneeangle	footangle	lbackangle	uarmleft_out	uarmleft_trn	uarmleft_up	se_inout	se_updown	handleleft_out	handleleft_trn	handleleft_up
      3.49500000	      0.00000002	     -0.01038091	    -15.71282460	     13.89732834	    -13.89732834	      0.00000000	     10.33757749	    -10.33757749	     88.14823191	     14.95171740	     13.09994931	    -28.39499847	     45.58812506	     15.81502159	   -246.39354131	     23.07623177	    346.47023037	    161.71593260	    -62.27536159	   -220.15837164
      3.50000000	      0.00000002	     -0.01147834	    -15.35470972	     13.89628442	    -13.89628442	      0.00000000	     10.33757749	    -10.33757749	     87.61153440	     15.95794724	     13.56948164	    -27.96449752	     45.33786016	     16.21281492	   -246.06797919	     22.85989712	    347.03806437	    161.58179845	    -62.07612828	   -220.56198160
      3.50500000	     -0.00000002	     -0.01147837	    -15.35470973	     13.89628320	    -13.89628320	      0.00000000	     10.33757749	    -10.33757749	     87.61152446	     15.95796590	     13.56949035	    -27.96449863	     45.33786314	     16.21281497	   -246.06797631	     22.85989778	    347.03806442	    161.58179772	    -62.07612733	   -220.56198399
      3.51000000	      0.00000002	     -0.01304394	    -14.64363862	     13.89378660	    -13.89378660	      0.00000000	     10.33757749	    -10.33757749	     86.90007145	     17.29298691	     14.19305835	    -27.18706730	     44.31150223	     17.22076283	   -245.14401968	     21.35594621	    348.42390082	    160.98973025	    -61.06657766	   -221.51523239
      3.51500000	      0.00000002	     -0.01404283	    -14.29961349	     13.89552696	    -13.89552696	      0.00000000	     10.33757749	    -10.33757749	     86.47367590	     18.09372970	     14.56740561	    -26.82660925	     43.78175228	     17.64029108	   -244.75136801	     20.61555105	    348.91282317	    160.76259580	    -60.56627431	   -222.00374578
      3.52000000	      0.00000002	     -0.01498903	    -13.93384747	     13.89803039	    -13.89803039	      0.00000000	     10.33757749	    -10.33757749	     86.08657295	     18.82108604	     14.90765899	    -26.40430793	     43.32447139	     18.04746961	   -244.39863180	     20.06537064	    349.40681532	    160.60677402	    -60.16897459	   -222.45214943
      3.52500000	      0.00000002	     -0.01597324	    -13.58998083	     13.89857095	    -13.89857095	      0.00000000	     10.33757749	    -10.33757749	     85.69926246	     19.54921382	     15.24847628	    -26.04257418	     42.78179632	     18.47259495	   -244.02222403	     19.29503901	    349.89072101	    160.40499170	    -59.65366154	   -222.90649663
      3.53000000	      0.00000002	     -0.01695091	    -13.24659163	     13.89877920	    -13.89877920	      0.00000000	     10.33757749	    -10.33757749	     85.32836946	     20.24683353	     15.57520299	    -25.68007333	     42.23347947	     18.89965297	   -243.66314991	     18.51090157	    350.36688455	    160.20785545	    -59.13719068	   -223.35127163
      3.53500000	      0.00000002	     -0.01796882	    -12.87017746	     13.88513470	    -13.88513470	      0.00000000	     10.33757749	    -10.33757749	     84.95538256	     20.94874159	     15.90412415	    -25.24480807	     41.64685299	     19.27903284	   -243.25878318	     17.75581803	    350.70475160	    160.06796216	    -58.57640995	   -223.89531268
      3.54000000	      0.00000001	     -0.01897535	    -12.49205559	     13.87059596	    -13.87059596	      0.00000000	     10.33757749	    -10.33757749	     84.59851529	     21.62064200	     16.21915729	    -24.80709692	     41.36221885	     19.87895870	   -242.97356603	     17.26853979	    351.64149038	    159.79682951	    -58.32552931	   -224.19251670
      3.54500000	      0.00000001	     -0.02085835	    -12.12139649	     13.89710759	    -13.89710759	     -0.00000000	     10.33757749	    -10.33757749	     83.95917553	     22.82517057	     16.78434611	    -24.51622613	     40.83237995	     20.34787885	   -242.75191740	     16.46340959	    352.17698950	    159.66301658	    -57.87750240	   -224.50490232
      3.55000000	      0.00000001	     -0.02184330	    -11.74531168	     13.88063936	    -13.88063936	     -0.00000000	     10.33757749	    -10.33757749	     83.63787756	     23.43088645	     17.06876401	    -24.07857505	     40.22077245	     20.73721885	   -242.39407979	     15.64978085	    352.50318409	    159.52597413	    -57.30467091	   -225.02691193
      3.55500000	      0.00000001	     -0.02275818	    -11.37786320	     13.86713159	    -13.86713159	     -0.00000000	     10.33757749	    -10.33757749	     83.34672854	     23.97998617	     17.32671470	    -23.65006997	     39.70258157	     21.19122821	   -242.09653972	     14.91769028	    353.01340370	    159.35242885	    -56.83626142	   -225.44603818
      3.56000000	      0.00000001	     -0.02477859	    -11.00411153	     13.88233351	    -13.88233351	     -0.00000000	     10.33757749	    -10.33757749	     82.72630783	     25.15078265	     17.87709047	    -23.33600752	     39.25176474	     21.58915416	   -241.93684810	     14.29061841	    353.43344119	    159.27867669	    -56.48407959	   -225.76895352
      3.56500000	      0.00000001	     -0.02600848	    -10.64019344	     13.87866407	    -13.87866407	     -0.00000000	     10.33757749	    -10.33757749	     82.36242030	     25.83791599	     18.20033630	    -22.95272406	     38.72983850	     22.03399409	   -241.70562002	     13.53432810	    353.91491577	    159.13143341	    -56.03047558	   -226.13935339
      3.57000000	      0.00000001	     -0.02786918	    -10.26115725	     13.85658588	    -13.85658588	     -0.00000000	     10.33757749	    -10.33757749	     81.82961574	     26.84460313	     18.67421888	    -22.59511297	     38.13413161	     22.43960636	   -241.43239267	     12.62140555	    354.21040351	    158.99449474	    -55.45139630	   -226.64085090
      3.57500000	      0.00000001	     -0.02885943	     -9.87284272	     13.86478326	    -13.86478326	     -0.00000000	     10.33757749	    -10.33757749	     81.55405313	     27.36552659	     18.91957972	    -22.14316975	     37.78239836	     22.91744635	   -241.31202709	     12.21389786	    354.90780201	    158.88389048	    -55.25381033	   -226.86272623
      3.58000000	      0.00000001	     -0.03070519	     -9.49387620	     13.85068533	    -13.85068533	     -0.00000000	     10.33757749	    -10.33757749	     81.05395290	     28.31138849	     19.36534139	    -21.78972797	     37.17370393	     23.31895941	   -241.08344807	     11.30135989	    355.19831955	    158.78002039	    -54.68711239	   -227.31079426
      3.58500000	      0.00000001	     -0.03288246	     -9.10251455	     13.85532525	    -13.85532525	     -0.00000000	     10.33757749	    -10.33757749	     80.48470020	     29.38878101	     19.87348121	    -21.46841177	     36.66604953	     23.83648205	   -240.94629028	     10.44827323	    355.78985275	    158.63166217	    -54.23908181	   -227.60219925
      3.59000000	      0.00000001	     -0.03387755	     -8.70423450	     13.86694224	    -13.86694224	     -0.00000000	     10.33757749	    -10.33757749	     80.23135658	     29.86852267	     20.09987925	    -21.00713213	     36.19075876	     24.24359852	   -240.84997142	      9.94168840	    356.28507289	    158.58074962	    -53.95987217	   -227.87309604
      3.59500000	      0.00000001	     -0.03574036	     -8.32832573	     13.84114886	    -13.84114886	     -0.00000000	     10.33757749	    -10.33757749	     79.76769781	     30.74692732	     20.51462512	    -20.65003283	     35.55547724	     24.66739994	   -240.63855654	      8.93623049	    356.57542340	    158.45800339	    -53.34507662	   -228.32704138
      3.60000000	      0.00000001	     -0.03788952	     -7.90268433	     13.82535254	    -13.82535254	     -0.00000000	     10.33757749	    -10.33757749	     79.24866381	     31.73085577	     20.97951959	    -20.25138493	     34.97013171	     25.15710047	   -240.48182712	      8.02852527	    357.04373312	    158.34517842	    -52.82474533	   -228.71391939
      3.60500000	      0.00000001	     -0.03978013	     -7.50810448	     13.83883686	    -13.83883686	     -0.00000000	     10.33757749	    -10.33757749	     78.80498366	     32.57245055	     21.37743421	    -19.88606109	     34.64256449	     25.64410361	   -240.46020167	      7.56665079	    357.76645138	    158.26731808	    -52.63350959	   -228.84533698
      3.61000000	      0.00000001	     -0.04193569	     -7.11170992	     13.83650674	    -13.83650674	     -0.00000000	     10.33757749	    -10.33757749	     78.31265571	     33.50687632	     21.81953203	    -19.54453959	     33.99170132	     26.10516183	   -240.36582159	      6.54827718	    358.14353035	    158.15784834	    -52.06610938	   -229.20368109
      3.61500000	      0.00000001	     -0.04379702	     -6.73790953	     13.81835799	    -13.81835799	     -0.00000000	     10.33757749	    -10.33757749	     77.89825933	     34.29384050	     22.19209983	    -19.19090464	     33.32282595	     26.53791662	   -240.24483746	      5.49775142	    358.43401966	    158.04493339	    -51.45488947	   -229.60447931
      3.62000000	      0.00000001	     -0.04592374	     -6.31313834	     13.80076515	    -13.80076515	     -0.00000000	     10.33757749	    -10.33757749	     77.43605360	     35.17208277	     22.60813637	    -18.77655748	     32.91758484	     27.00517245	   -240.17403536	      4.91248154	    359.02433128	    157.98489972	    -51.14423944	   -229.85975409
      3.62500000	      0.00000001	     -0.04782817	     -5.91376875	     13.80641286	    -13.80641286	     -0.00000000	     10.33757749	    -10.33757749	     77.03167193	     35.94087212	     22.97254404	    -18.40839506	     32.23646396	     27.47139427	   -240.14573249	      3.90123709	    359.42530983	    157.89101665	    -50.59746701	   -230.16520323
      3.63000000	      0.00000001	     -0.04992424	     -5.48622922	     13.79718348	    -13.79718348	     -0.00000000	     10.33757749	    -10.33757749	     76.59628892	     36.76903663	     23.36532555	    -17.99511072	     31.81471984	     27.94131505	   -240.12062814	      3.31437629	    360.04030939	    157.84229251	    -50.29996006	   -230.37509542
      3.63500000	      0.00000001	     -0.05184253	     -5.09154722	     13.79250072	    -13.79250072	     -0.00000000	     10.33757749	    -10.33757749	     76.20617949	     37.51146870	     23.71764819	    -17.62308801	     31.11780582	     28.41714309	   -240.10259508	      2.24635731	    360.43263646	    157.73692302	    -49.71738712	   -230.69212873
      3.64000000	      0.00000000	     -0.05394593	     -4.63570544	     13.80717139	    -13.80717139	     -0.00000000	     10.33757749	    -10.33757749	     75.78702381	     38.30958497	     24.09660878	    -17.19193569	     30.68874547	     28.91312698	   -240.15901510	      1.72386199	    361.17099032	    157.71463406	    -49.49058763	   -230.79826241
